<svg aria-hidden="true" style="position: absolute; width: 0; height: 0; overflow: hidden;" version="1.1" xmlns="http://www.w3.org/2000/svg" xmlns:xlink="http://www.w3.org/1999/xlink">
<defs>

<symbol id="icon-select-arrows" viewBox="0 0 20 20">
<title>select-arrows</title>
<path d="M10 1l-5 7h10l-5-7zM10 19l5-7h-10l5 7z"></path>
</symbol>

<symbol id="icon-checkmark" viewBox="0 0 32 32">
<title>checkmark</title>
<path d="M27 4l-15 15-7-7-5 5 12 12 20-20z"></path>
</symbol>

<symbol id="icon-pencil" viewBox="0 0 32 32">
<title>pencil</title>
<path d="M27 0c2.761 0 5 2.239 5 5 0 1.126-0.372 2.164-1 3l-2 2-7-7 2-2c0.836-0.628 1.874-1 3-1zM2 23l-2 9 9-2 18.5-18.5-7-7-18.5 18.5zM22.362 11.362l-14 14-1.724-1.724 14-14 1.724 1.724z"></path>
</symbol>

<symbol id="icon-calendar" viewBox="0 0 20 20">
<title>calendar</title>
<path d="M1 4c0-1.1 0.9-2 2-2h14c1.105 0 2 0.895 2 2v0 14c0 1.105-0.895 2-2 2v0h-14c-1.105 0-2-0.895-2-2v0-14zM3 6v12h14v-12h-14zM5 0h2v2h-2v-2zM13 0h2v2h-2v-2zM5 9h2v2h-2v-2zM5 13h2v2h-2v-2zM9 9h2v2h-2v-2zM9 13h2v2h-2v-2zM13 9h2v2h-2v-2zM13 13h2v2h-2v-2z"></path>
</symbol>

<symbol id="icon-arrow_drop_down" viewBox="0 0 24 24">
<title>arrow_drop_down</title>
<path d="M6.984 9.984h10.031l-5.016 5.016z"></path>
</symbol>

<symbol id="icon-download1" viewBox="0 0 32 32">
<title>download1</title>
<path d="M16 18l8-8h-6v-8h-4v8h-6zM23.273 14.727l-2.242 2.242 8.128 3.031-13.158 4.907-13.158-4.907 8.127-3.031-2.242-2.242-8.727 3.273v8l16 6 16-6v-8z"></path>
</symbol>

</defs>
</svg>
